/* XPM */
static char *dc8f12765ca04990bebdbc10357aa7db5QiQFafkuvhgyQ2W[] = {
/* columns rows colors chars-per-pixel */
"32 32 8 1 ",
"  c #BCA94E",
". c #EAE178",
"X c #5C4E92",
"o c #766DAA",
"O c #E8B5AC",
"+ c #DDD5DE",
"@ c #F3D8C5",
"# c #F3F2C0",
/* pixels */
"      XXXXXX        XXXXXX      ",
"      XXXXXX        XXXXXX      ",
"    XX######XX    XX######XX    ",
"    XX######XX    XX######XX    ",
"    XXOOOO##XXXXXXXX##OOOOXX    ",
"    XXOOOO##XXXXXXXX##OOOOXX    ",
"    XXOOOO##++++++++##OOOOXX    ",
"    XXOOOO##++++++++##OOOOXX    ",
"    XX######++++++++######XX    ",
"    XX######++++++++######XX    ",
"    XX######++++++++######XX    ",
"    XX######++++++++######XX    ",
"  XXXX####################XXXX  ",
"  XXXX####################XXXX  ",
"    XX##XX############XX##XX    ",
"    XX##XX############XX##XX    ",
"  XXXX####################XXXX  ",
"  XXXX####################XXXX  ",
"    XX@@@@############@@@@XX    ",
"    XX@@@@############@@@@XX    ",
"      XXXXooooooooooooXXXX      ",
"      XXXXooooooooooooXXXX      ",
"    XX++##oooo..##oooo##++XX    ",
"    XX++##oooo..##oooo##++XX    ",
"    XX++######....######++XX    ",
"    XX++######....######++XX    ",
"      XXXX############XXXX      ",
"      XXXX############XXXX      ",
"        XX++++XXXX++++XX        ",
"        XX++++XXXX++++XX        ",
"          XXXX    XXXX          ",
"          XXXX    XXXX          "
};
