/* XPM */
static char *_9d871d9a5d8442da40b6fed7b2bcdfd[] = {
/* columns rows colors chars-per-pixel */
"32 32 6 1 ",
"  c #754C60",
". c #90625D",
"X c #AA7959",
"o c #C49A6C",
"O c #DCB98A",
"+ c #E8CFA6",
/* pixels */
"                                ",
"                                ",
"    oooooooooooooooooooooooo    ",
"    oooooooooooooooooooooooo    ",
"oooo  oooooooooooooooooooo  oooo",
"oooo  oooooooooooooooooooo  oooo",
"oooo  oo                oo  oooo",
"oooo  oo                oo  oooo",
"oooo    oooooooooooooooo    oooo",
"oooo    oooooooooooooooo    oooo",
"OOOO  oo................oo  OOOO",
"OOOO  oo................oo  OOOO",
"XXXX  ....................  XXXX",
"XXXX  ....................  XXXX",
"XXXX  ....XX........XX....  XXXX",
"XXXX  ....XX........XX....  XXXX",
"....  ....XX........XX....  ....",
"....  ....XX........XX....  ....",
"XXXX  ....XX........XX....  XXXX",
"XXXX  ....XX........XX....  XXXX",
"XXXX  ....XX........XX....  XXXX",
"XXXX  ....XX........XX....  XXXX",
"XXXX  ....XX........++++..  XXXX",
"XXXX  ....XX........++++..  XXXX",
"....  ....XX........XX....  ....",
"....  ....XX........XX....  ....",
"XXXX  ....XX........XX....  XXXX",
"XXXX  ....XX........XX....  XXXX",
"XXXX  ....XX........XX....  XXXX",
"XXXX  ....XX........XX....  XXXX",
"XXXX  ....................  XXXX",
"XXXX  ....................  XXXX"
};
