/* XPM */
static char *_b7d95e470ec4229edc27a9a0ce38293xR4MVBEWuC0CZhuQ[] = {
/* columns rows colors chars-per-pixel */
"32 32 11 1 ",
"  c #BF7E79",
". c #BCA94E",
"X c #4C468B",
"o c #555793",
"O c #5F699C",
"+ c #7180B1",
"@ c #DBADA9",
"# c #8599C7",
"$ c #B4C8C6",
"% c #CBE0DE",
"& c #F3F4E7",
/* pixels */
"................................",
"................................",
"..........&&&&&&&&&&&&..........",
"..........&&&&&&&&&&&&..........",
"........&&ooooooooooXX&&........",
"........&&ooooooooooXX&&........",
"......&&oo########++++XX&&......",
"......&&oo########++++XX&&......",
"........&&XXXXXXXXXXXX&&........",
"........&&XXXXXXXXXXXX&&........",
"......&&##%%&&%%%%%%$$##&&......",
"......&&##%%&&%%%%%%$$##&&......",
"......&&##&&%%%%%%%%$$##&&......",
"......&&##&&%%%%%%%%$$##&&......",
"......&&##%%%%%%%%%%$$##&&......",
"......&&##%%%%%%%%%%$$##&&......",
"....&&##@@@@@@@@@@@@    ++&&....",
"....&&##@@@@@@@@@@@@    ++&&....",
"....&&##@@@@@@@@@@@@    ++&&....",
"....&&##@@@@@@@@@@@@    ++&&....",
"....&&++@@@@@@@@@@@@    OO&&....",
"....&&++@@@@@@@@@@@@    OO&&....",
"....&&++@@@@@@@@@@@@    OO&&....",
"....&&++@@@@@@@@@@@@    OO&&....",
"....&&++@@@@@@@@@@      OO&&....",
"....&&++@@@@@@@@@@      OO&&....",
"....&&OO@@@@            OO&&....",
"....&&OO@@@@            OO&&....",
"......&&OOOOOOOOOOOOOOOO&&......",
"......&&OOOOOOOOOOOOOOOO&&......",
"........&&&&&&&&&&&&&&&&........",
"........&&&&&&&&&&&&&&&&........"
};
