/* XPM */
static char *_1d612994b62411f9052372c3c9e7060QviAcq9nRDCCS7XH[] = {
/* columns rows colors chars-per-pixel */
"32 32 11 1 ",
"  c #BF7E79",
". c #C0D470",
"X c #4C468B",
"o c #555793",
"O c #5F699C",
"+ c #7180B1",
"@ c #DBADA9",
"# c #8599C7",
"$ c #B4C8C6",
"% c #CBE0DE",
"& c #F3F4E7",
/* pixels */
"................................",
"................................",
"..........&&&&&&&&&&&&..........",
"..........&&&&&&&&&&&&..........",
"........&&ooooooooooXX&&........",
"........&&ooooooooooXX&&........",
"......&&oo########++++XX&&......",
"......&&oo########++++XX&&......",
"........&&XXXXXXXXXXXX&&........",
"........&&XXXXXXXXXXXX&&........",
"......&&##%%&&%%%%%%$$##&&......",
"......&&##%%&&%%%%%%$$##&&......",
"......&&##&&%%%%%%%%$$##&&......",
"......&&##&&%%%%%%%%$$##&&......",
"......&&##%%%%%%%%%%$$##&&......",
"......&&##%%%%%%%%%%$$##&&......",
"....&&##@@@@@@@@@@@@    ++&&....",
"....&&##@@@@@@@@@@@@    ++&&....",
"....&&##@@@@@@@@@@@@    ++&&....",
"....&&##@@@@@@@@@@@@    ++&&....",
"....&&++@@@@@@@@@@@@    OO&&....",
"....&&++@@@@@@@@@@@@    OO&&....",
"....&&++@@@@@@@@@@@@    OO&&....",
"....&&++@@@@@@@@@@@@    OO&&....",
"....&&++@@@@@@@@@@      OO&&....",
"....&&++@@@@@@@@@@      OO&&....",
"....&&OO@@@@            OO&&....",
"....&&OO@@@@            OO&&....",
"......&&OOOOOOOOOOOOOOOO&&......",
"......&&OOOOOOOOOOOOOOOO&&......",
"........&&&&&&&&&&&&&&&&........",
"........&&&&&&&&&&&&&&&&........"
};
