/* XPM */
static char *_da6a19fb3b541c6e53c37e92226310a3W4kS8QoG9EeGavb[] = {
/* columns rows colors chars-per-pixel */
"32 32 2 1 ",
"  c #B1E0BE",
". c #9BD4C3",
/* pixels */
"..........................      ",
"..........................      ",
"................................",
"................................",
"..............      ............",
"..............      ............",
"................................",
"................................",
"................................",
"................................",
"      ........................  ",
"      ........................  ",
"................................",
"................................",
"................................",
"................................",
"..................        ......",
"..................        ......",
"................................",
"................................",
"........    ....................",
"........    ....................",
"................................",
"................................",
"..........................      ",
"..........................      ",
"..............      ............",
"..............      ............",
"................................",
"................................",
"................................",
"................................"
};
